<?xml version="1.0" encoding="UTF-8" standalone="no"?>
<!DOCTYPE svg PUBLIC "-//W3C//DTD SVG 1.1//EN" "http://www.w3.org/Graphics/SVG/1.1/DTD/svg11.dtd">
<!-- Created with Vectornator (http://vectornator.io/) -->
<svg height="100%" stroke-miterlimit="10" style="fill-rule:nonzero;clip-rule:evenodd;stroke-linecap:round;stroke-linejoin:round;" version="1.1" viewBox="0 0 3370.82 1732.23" width="100%" xml:space="preserve" xmlns="http://www.w3.org/2000/svg" xmlns:vectornator="http://vectornator.io" xmlns:xlink="http://www.w3.org/1999/xlink">
<defs/>
<g id="Layer-2" vectornator:layerName="Layer 2">
<path d="M1369.43 848.911L1477.04 712.504L1477.04 712.566C1523.65 658.363 1592.63 623.94 1669.54 623.94C1748.62 623.94 1819.36 660.293 1865.97 717.152L1865.97 717.143L1969.94 848.921L2090.35 695.681L2014.11 598.644L2013.93 598.787C1932.63 498.585 1808.63 434.442 1669.54 434.442C1532.28 434.442 1409.73 496.923 1328.39 594.872L1328.29 594.791L1326.36 597.241C1325.97 597.723 1325.54 598.179 1325.15 598.662C1325.16 598.653 1325.21 598.689 1325.23 598.689L1249.02 695.672L1369.43 848.911ZM2999.78 877.861C2999.78 1122.74 2801.26 1321.27 2556.37 1321.27C2425.44 1321.27 2307.81 1264.49 2226.64 1174.26L2226.62 1174.28L2135.88 1059.27L2256.21 906.751L2366.6 1047.24L2366.59 1046.3C2413.14 1098.68 2480.94 1131.77 2556.37 1131.77C2696.37 1131.77 2810.28 1017.86 2810.28 877.861C2810.28 737.845 2696.37 623.94 2556.37 623.94C2479.45 623.94 2410.46 658.372 2363.87 712.566L2363.87 712.504L2233.46 877.801L2233.49 877.831L2113.11 1030.4L2113.09 1030.38L2002.6 1170.43L2002.59 1170.42C1921.33 1262.85 1802.3 1321.27 1669.54 1321.27C1538.63 1321.27 1420.99 1264.49 1339.83 1174.26L1339.8 1174.28L1245.66 1054.95L1245.67 1054.94L1089.91 857.531L1089.91 857.541L979.14 717.143L979.14 717.152C932.54 660.293 861.81 623.94 782.726 623.94C642.709 623.94 528.804 737.845 528.804 877.861C528.804 1017.86 642.709 1131.77 782.726 1131.77C858.71 1131.77 926.96 1098.17 973.53 1045.11L973.53 1045.15L974.04 1045.6L1083.18 906.711L1203.5 1059.23L1115.82 1170.36L1115.81 1170.37L1115.77 1170.43L1115.77 1170.42C1034.51 1262.85 915.47 1321.27 782.726 1321.27C537.832 1321.27 339.306 1122.74 339.306 877.861C339.306 632.968 537.832 434.442 782.726 434.442C921.81 434.442 1045.82 498.585 1127.1 598.787L1127.28 598.644L1226.27 724.616L1226.28 724.607L1346.65 877.791L1346.64 877.801L1479.78 1047.24L1479.78 1046.3C1526.32 1098.68 1594.13 1131.77 1669.54 1131.77C1745.53 1131.77 1813.78 1098.17 1860.36 1045.1L1860.36 1045.15L1860.86 1045.6L1972.85 903.101L2139.44 691.087L2212.04 598.689C2212.04 598.689 2211.97 598.653 2211.96 598.662C2212.36 598.179 2212.79 597.723 2213.19 597.241L2215.11 594.791L2215.22 594.872C2296.55 496.923 2419.11 434.442 2556.37 434.442C2801.26 434.442 2999.78 632.968 2999.78 877.861" fill="#e6573c" fill-rule="nonzero" opacity="1" stroke="none"/>
</g>
</svg>
