<?xml version="1.0" encoding="UTF-8" standalone="no"?>
<!DOCTYPE svg PUBLIC "-//W3C//DTD SVG 1.1//EN" "http://www.w3.org/Graphics/SVG/1.1/DTD/svg11.dtd">
<!-- Created with Vectornator (http://vectornator.io/) -->
<svg height="100%" stroke-miterlimit="10" style="fill-rule:nonzero;clip-rule:evenodd;stroke-linecap:round;stroke-linejoin:round;" version="1.1" viewBox="0 0 1190.55 208.49" width="100%" xml:space="preserve" xmlns="http://www.w3.org/2000/svg" xmlns:vectornator="http://vectornator.io" xmlns:xlink="http://www.w3.org/1999/xlink">
<defs/>
<g id="Layer-1" vectornator:layerName="Layer 1">
<g opacity="1">
<path d="M55.6177 180.812L24.0667 180.812L24.0667 33.3909L55.6177 33.3909L55.6177 180.812Z" fill="#010303" fill-rule="nonzero" opacity="1" stroke="none"/>
<path d="M258.843 102.166L276.759 79.4549L276.759 79.466C284.519 70.4419 296.005 64.7109 308.811 64.7109C321.976 64.7109 333.754 70.7629 341.514 80.229L341.514 80.2269L358.825 102.17L378.874 76.656L366.179 60.4979L366.149 60.5209C352.613 43.8389 331.968 33.16 308.811 33.16C285.957 33.16 265.553 43.5629 252.011 59.8699L251.992 59.8569L251.673 60.264C251.606 60.3449 251.535 60.42 251.469 60.5019C251.471 60.4999 251.481 60.506 251.483 60.506L238.794 76.652L258.843 102.166ZM530.288 106.987C530.288 147.758 497.235 180.811 456.461 180.811C434.665 180.811 415.079 171.359 401.566 156.336L401.562 156.34L386.453 137.19L406.487 111.797L424.867 135.185L424.867 135.031C432.616 143.753 443.906 149.262 456.461 149.262C479.773 149.262 498.737 130.296 498.737 106.987C498.737 83.6749 479.773 64.7109 456.461 64.7109C443.655 64.7109 432.17 70.4419 424.412 79.466L424.412 79.4549L402.698 106.976L402.703 106.98L382.662 132.384L382.658 132.38L364.262 155.697C350.732 171.086 330.912 180.811 308.811 180.811C287.012 180.811 267.427 171.359 253.913 156.336L253.909 156.34L238.235 136.47L238.237 136.47L212.304 103.601L212.304 103.603L193.861 80.2269L193.861 80.229C186.103 70.7629 174.326 64.7109 161.159 64.7109C137.849 64.7109 118.883 83.6749 118.883 106.987C118.883 130.296 137.849 149.262 161.159 149.262C173.81 149.262 185.173 143.667 192.929 134.833L192.927 134.841L193.012 134.914L211.183 111.791L231.217 137.184L216.62 155.687C216.617 155.687 216.617 155.687 216.617 155.689L216.609 155.697C203.079 171.086 183.26 180.811 161.159 180.811C120.385 180.811 87.3324 147.758 87.3324 106.987C87.3324 66.213 120.385 33.16 161.159 33.16C184.315 33.16 204.963 43.8389 218.497 60.5209L218.526 60.4979L235.008 81.4729L235.008 81.4699L255.05 106.974L255.048 106.976L277.216 135.185L277.214 135.031C284.964 143.753 296.253 149.262 308.811 149.262C321.463 149.262 332.825 143.667 340.579 134.831L340.579 134.841L340.665 134.914L359.307 111.188L359.309 111.188L387.045 75.8899L399.133 60.506C399.131 60.506 399.123 60.4999 399.121 60.5019C399.186 60.42 399.259 60.3449 399.323 60.264L399.645 59.8569L399.661 59.8699C413.204 43.5629 433.609 33.16 456.461 33.16C497.235 33.16 530.288 66.213 530.288 106.987" fill="#010303" fill-rule="nonzero" opacity="1" stroke="none"/>
<path d="M633.416 96.208C627.21 99.1809 619.78 101.016 610.076 101.016C590.148 101.016 576.249 87.643 576.249 68.324C576.249 48.4819 590.759 35.983 609.815 35.983C619.605 35.983 628.345 39.131 633.329 43.764L625.723 51.98C622.577 48.4819 616.545 45.6849 609.903 45.6849C596.88 45.6849 588.4 55.5639 588.4 68.324C588.4 81.5249 596.79 91.139 610.426 91.139C615.059 91.139 619.169 90.4379 622.753 88.953L622.753 73.2179L609.728 73.2179L609.728 64.1289L633.416 64.1289L633.416 96.208Z" fill="#010303" fill-rule="nonzero" opacity="1" stroke="none"/>
<path d="M721.292 75.842L711.763 50.6679L702.061 75.842L721.292 75.842ZM707.307 37.557L716.834 37.557L743.493 99.4429L730.906 99.4429L725.136 85.2829L698.302 85.2829L692.709 99.4429L680.383 99.4429L707.307 37.557Z" fill="#010303" fill-rule="nonzero" opacity="1" stroke="none"/>
<path d="M833.816 52.066C830.581 47.608 824.725 45.6849 819.744 45.6849C806.981 45.6849 798.329 55.562 798.329 68.325C798.329 81.786 806.545 91.139 819.306 91.139C825.95 91.139 831.194 88.2539 834.342 83.9699L843.17 90.1759C837.75 96.9949 829.709 101.017 819.218 101.017C799.902 101.017 786.178 87.643 786.178 68.325C786.178 48.4819 800.688 35.983 819.744 35.983C827.785 35.983 837.314 38.9559 842.208 45.4219L833.816 52.066Z" fill="#010303" fill-rule="nonzero" opacity="1" stroke="none"/>
<path d="M891.096 37.557L902.11 37.557L902.11 62.5559L931.043 62.5559L931.043 37.557L942.057 37.557L942.057 99.4429L931.043 99.4429L931.043 71.9949L902.11 71.9949L902.11 99.4429L891.096 99.4429L891.096 37.557Z" fill="#010303" fill-rule="nonzero" opacity="1" stroke="none"/>
<path d="M1027.05 91.1399C1039.73 91.1399 1048.38 81.5249 1048.38 68.325C1048.38 55.562 1039.9 45.6849 1027.05 45.6849C1014.29 45.6849 1005.81 55.562 1005.81 68.325C1005.81 81.5249 1014.47 91.1399 1027.05 91.1399M1026.97 35.983C1046.28 35.983 1060.36 48.483 1060.36 68.325C1060.36 87.643 1046.28 101.017 1026.97 101.017C1007.91 101.017 993.831 87.643 993.831 68.325C993.831 48.483 1007.91 35.983 1026.97 35.983" fill="#010303" fill-rule="nonzero" opacity="1" stroke="none"/>
<path d="M1112.13 37.557L1126.73 37.557L1155.49 83.8829L1155.66 83.8829L1155.66 37.557L1166.68 37.557L1166.68 99.4429L1152.69 99.4429L1123.32 51.6289L1123.15 51.6289L1123.15 99.4429L1112.13 99.4429L1112.13 37.557Z" fill="#010303" fill-rule="nonzero" opacity="1" stroke="none"/>
<path d="M616.672 172.636C613.159 177.425 607.347 180.813 599.425 180.813C585.563 180.813 575.598 170.911 575.598 156.984C575.598 142.866 585.947 133.285 599.681 133.285C605.877 133.285 612.583 135.713 615.906 140.311L610.925 144.143C608.751 141.079 604.343 138.842 599.681 138.842C589.203 138.842 582.497 147.084 582.497 156.984C582.497 167.143 589.076 175.191 599.489 175.191C604.535 175.191 608.941 173.082 611.626 169.188L616.672 172.636Z" fill="#010303" fill-rule="nonzero" opacity="1" stroke="none"/>
<path d="M647.136 138.843C636.722 138.843 630.078 147.083 630.078 156.985C630.078 167.079 636.787 175.127 647.136 175.127C657.612 175.127 664.318 167.079 664.318 156.985C664.318 147.083 657.676 138.843 647.136 138.843M647.136 180.813C633.402 180.813 623.245 170.911 623.245 156.985C623.245 142.867 633.402 133.286 647.136 133.286C660.935 133.286 671.154 142.867 671.154 156.985C671.154 170.911 660.935 180.813 647.136 180.813" fill="#010303" fill-rule="nonzero" opacity="1" stroke="none"/>
<path d="M721.74 172.636C718.227 177.425 712.416 180.813 704.493 180.813C690.632 180.813 680.667 170.911 680.667 156.984C680.667 142.866 691.013 133.285 704.75 133.285C710.945 133.285 717.652 135.713 720.975 140.311L715.991 144.143C713.82 141.079 709.412 138.842 704.75 138.842C694.272 138.842 687.565 147.084 687.565 156.984C687.565 167.143 694.144 175.191 704.558 175.191C709.604 175.191 714.012 173.082 716.694 169.188L721.74 172.636Z" fill="#010303" fill-rule="nonzero" opacity="1" stroke="none"/>
<path d="M752.204 138.843C741.791 138.843 735.147 147.083 735.147 156.985C735.147 167.079 741.856 175.127 752.204 175.127C762.682 175.127 769.387 167.079 769.387 156.985C769.387 147.083 762.745 138.843 752.204 138.843M752.204 180.813C738.47 180.813 728.313 170.911 728.313 156.985C728.313 142.867 738.47 133.286 752.204 133.286C766.003 133.286 776.223 142.867 776.223 156.985C776.223 170.911 766.003 180.813 752.204 180.813" fill="#010303" fill-rule="nonzero" opacity="1" stroke="none"/>
<path d="M819.909 170.591L820.036 170.591L820.036 134.435L826.361 134.435L826.361 179.661L818.376 179.661L794.485 142.739L794.357 142.739L794.357 179.661L788.032 179.661L788.032 134.435L796.272 134.435L819.909 170.591Z" fill="#010303" fill-rule="nonzero" opacity="1" stroke="none"/>
<path d="M846.858 174.041L870.495 174.041L870.495 179.663L840.533 179.663L840.533 134.436L869.537 134.436L869.537 139.993L846.858 139.993L846.858 153.535L868.194 153.535L868.194 158.965L846.858 158.965L846.858 174.041Z" fill="#010303" fill-rule="nonzero" opacity="1" stroke="none"/>
<path d="M923.76 142.803C921.972 140.312 918.714 138.587 914.944 138.587C910.856 138.587 906.129 140.823 906.129 145.934C906.129 150.851 910.282 152.194 915.393 153.855C921.461 155.772 928.679 158.07 928.679 167.078C928.679 176.467 921.077 180.812 913.027 180.812C907.343 180.812 901.594 178.576 898.143 174.233L903.062 170.08C905.171 173.211 909.003 175.382 913.157 175.382C917.372 175.382 922.227 173.019 922.227 167.652C922.227 162.159 917.245 160.691 911.494 158.901C905.745 157.113 899.741 154.493 899.741 146.189C899.741 137.181 907.789 133.284 915.263 133.284C920.504 133.284 925.42 135.329 928.23 138.46L923.76 142.803Z" fill="#010303" fill-rule="nonzero" opacity="1" stroke="none"/>
<path d="M979.585 172.636C976.072 177.425 970.261 180.813 962.338 180.813C948.477 180.813 938.512 170.911 938.512 156.984C938.512 142.866 948.858 133.285 962.595 133.285C968.79 133.285 975.497 135.713 978.82 140.311L973.838 144.143C971.665 141.079 967.257 138.842 962.595 138.842C952.117 138.842 945.41 147.084 945.41 156.984C945.41 167.143 951.989 175.191 962.403 175.191C967.449 175.191 971.857 173.082 974.539 169.188L979.585 172.636Z" fill="#010303" fill-rule="nonzero" opacity="1" stroke="none"/>
<path d="M989.223 134.436L995.546 134.436L995.546 153.343L1018.42 153.343L1018.42 134.436L1024.81 134.436L1024.81 179.663L1018.42 179.663L1018.42 158.965L995.546 158.965L995.546 179.663L989.223 179.663L989.223 134.436Z" fill="#010303" fill-rule="nonzero" opacity="1" stroke="none"/>
<path d="M1060.57 138.843C1050.16 138.843 1043.52 147.083 1043.52 156.985C1043.52 167.079 1050.23 175.127 1060.57 175.127C1071.05 175.127 1077.76 167.079 1077.76 156.985C1077.76 147.083 1071.12 138.843 1060.57 138.843M1060.57 180.813C1046.84 180.813 1036.68 170.911 1036.68 156.985C1036.68 142.867 1046.84 133.286 1060.57 133.286C1074.37 133.286 1084.59 142.867 1084.59 156.985C1084.59 170.911 1074.37 180.813 1060.57 180.813" fill="#010303" fill-rule="nonzero" opacity="1" stroke="none"/>
<path d="M1117.99 138.843C1107.58 138.843 1100.94 147.083 1100.94 156.985C1100.94 167.079 1107.65 175.127 1117.99 175.127C1128.47 175.127 1135.18 167.079 1135.18 156.985C1135.18 147.083 1128.53 138.843 1117.99 138.843M1117.99 180.813C1104.26 180.813 1094.1 170.911 1094.1 156.985C1094.1 142.867 1104.26 133.286 1117.99 133.286C1131.79 133.286 1142.01 142.867 1142.01 156.985C1142.01 170.911 1131.79 180.813 1117.99 180.813" fill="#010303" fill-rule="nonzero" opacity="1" stroke="none"/>
<path d="M1160.15 174.041L1180.33 174.041L1180.33 179.663L1153.82 179.663L1153.82 134.436L1160.15 134.436L1160.15 174.041Z" fill="#010303" fill-rule="nonzero" opacity="1" stroke="none"/>
</g>
</g>
</svg>
